<?xml version="1.0" encoding="UTF-8" standalone="no"?>
<!DOCTYPE svg PUBLIC "-//W3C//DTD SVG 1.1//EN"
 "http://www.w3.org/Graphics/SVG/1.1/DTD/svg11.dtd">
<!-- Generated by graphviz version 2.43.0 (0)
 -->
<!-- Title: Integralização Curricular Pages: 1 -->
<svg width="129pt" height="279pt"
 viewBox="0.00 0.00 129.00 279.00" xmlns="http://www.w3.org/2000/svg" xmlns:xlink="http://www.w3.org/1999/xlink">
<g id="graph0" class="graph" transform="scale(1 1) rotate(0) translate(4 275)">
<title>Integralização Curricular</title>
<g id="clust6" class="cluster">
<title>cluster_6º Semestre</title>
<g id="a_clust6"><a xlink:title="6º Semestre">
<path fill="transparent" stroke="black" d="M20,-188C20,-188 101,-188 101,-188 107,-188 113,-194 113,-200 113,-200 113,-251 113,-251 113,-257 107,-263 101,-263 101,-263 20,-263 20,-263 14,-263 8,-257 8,-251 8,-251 8,-200 8,-200 8,-194 14,-188 20,-188"/>
<text text-anchor="middle" x="60.5" y="-247.8" font-family="Times,serif" font-size="14.00">6º Semestre</text>
</a>
</g>
</g>
<g id="clust7" class="cluster">
<title>cluster_Nenhum</title>
<g id="a_clust7"><a xlink:title="Nenhum">
<path fill="transparent" stroke="black" d="M20,-8C20,-8 86,-8 86,-8 92,-8 98,-14 98,-20 98,-20 98,-71 98,-71 98,-77 92,-83 86,-83 86,-83 20,-83 20,-83 14,-83 8,-77 8,-71 8,-71 8,-20 8,-20 8,-14 14,-8 20,-8"/>
<text text-anchor="middle" x="53" y="-67.8" font-family="Times,serif" font-size="14.00">Nenhum</text>
</a>
</g>
</g>
<!-- CC0325 -->
<g id="node1" class="node">
<title>CC0325</title>
<g id="a_node1"><a xlink:href="../../curso/componentes/cc0325.html" xlink:title="Álgebra Linear Computacional">
<path fill="none" stroke="black" d="M78,-232C78,-232 28,-232 28,-232 22,-232 16,-226 16,-220 16,-220 16,-208 16,-208 16,-202 22,-196 28,-196 28,-196 78,-196 78,-196 84,-196 90,-202 90,-208 90,-208 90,-220 90,-220 90,-226 84,-232 78,-232"/>
<text text-anchor="middle" x="53" y="-210.3" font-family="Times,serif" font-size="14.00">CC0325</text>
</a>
</g>
</g>
<!-- CC0332 -->
<g id="node2" class="node">
<title>CC0332</title>
<g id="a_node2"><a xlink:href="../../curso/componentes/cc0332.html" xlink:title="Álgebra Linear Computacional de Grande Porte">
<path fill="none" stroke="black" d="M78,-52C78,-52 28,-52 28,-52 22,-52 16,-46 16,-40 16,-40 16,-28 16,-28 16,-22 22,-16 28,-16 28,-16 78,-16 78,-16 84,-16 90,-22 90,-28 90,-28 90,-40 90,-40 90,-46 84,-52 78,-52"/>
<text text-anchor="middle" x="53" y="-30.3" font-family="Times,serif" font-size="14.00">CC0332</text>
</a>
</g>
</g>
<!-- CC0325&#45;&gt;CC0332 -->
<g id="edge1" class="edge">
<title>CC0325&#45;&gt;CC0332</title>
<path fill="none" stroke="black" d="M53,-195.93C53,-164.97 53,-99.3 53,-62.13"/>
<polygon fill="black" stroke="black" points="56.5,-62.02 53,-52.02 49.5,-62.02 56.5,-62.02"/>
</g>
</g>
</svg>
