<?xml version="1.0" encoding="UTF-8" standalone="no"?>
<!DOCTYPE svg PUBLIC "-//W3C//DTD SVG 1.1//EN"
 "http://www.w3.org/Graphics/SVG/1.1/DTD/svg11.dtd">
<!-- Generated by graphviz version 2.43.0 (0)
 -->
<!-- Title: Integralização Curricular Pages: 1 -->
<svg width="1152pt" height="1179pt"
 viewBox="0.00 0.00 1151.77 1179.00" xmlns="http://www.w3.org/2000/svg" xmlns:xlink="http://www.w3.org/1999/xlink">
<g id="graph0" class="graph" transform="scale(1 1) rotate(0) translate(4 1175)">
<title>Integralização Curricular</title>
<g id="clust1" class="cluster">
<title>cluster_1º Semestre</title>
<g id="a_clust1"><a xlink:title="1º Semestre">
<path fill="transparent" stroke="black" d="M427,-1088C427,-1088 861,-1088 861,-1088 867,-1088 873,-1094 873,-1100 873,-1100 873,-1151 873,-1151 873,-1157 867,-1163 861,-1163 861,-1163 427,-1163 427,-1163 421,-1163 415,-1157 415,-1151 415,-1151 415,-1100 415,-1100 415,-1094 421,-1088 427,-1088"/>
<text text-anchor="middle" x="644" y="-1147.8" font-family="Times,serif" font-size="14.00">1º Semestre</text>
</a>
</g>
</g>
<g id="clust2" class="cluster">
<title>cluster_2º Semestre</title>
<g id="a_clust2"><a xlink:title="2º Semestre">
<path fill="transparent" stroke="black" d="M524,-908C524,-908 958,-908 958,-908 964,-908 970,-914 970,-920 970,-920 970,-971 970,-971 970,-977 964,-983 958,-983 958,-983 524,-983 524,-983 518,-983 512,-977 512,-971 512,-971 512,-920 512,-920 512,-914 518,-908 524,-908"/>
<text text-anchor="middle" x="741" y="-967.8" font-family="Times,serif" font-size="14.00">2º Semestre</text>
</a>
</g>
</g>
<g id="clust3" class="cluster">
<title>cluster_3º Semestre</title>
<g id="a_clust3"><a xlink:title="3º Semestre">
<path fill="transparent" stroke="black" d="M421,-728C421,-728 855,-728 855,-728 861,-728 867,-734 867,-740 867,-740 867,-791 867,-791 867,-797 861,-803 855,-803 855,-803 421,-803 421,-803 415,-803 409,-797 409,-791 409,-791 409,-740 409,-740 409,-734 415,-728 421,-728"/>
<text text-anchor="middle" x="638" y="-787.8" font-family="Times,serif" font-size="14.00">3º Semestre</text>
</a>
</g>
</g>
<g id="clust4" class="cluster">
<title>cluster_4º Semestre</title>
<g id="a_clust4"><a xlink:title="4º Semestre">
<path fill="transparent" stroke="black" d="M20,-548C20,-548 454,-548 454,-548 460,-548 466,-554 466,-560 466,-560 466,-611 466,-611 466,-617 460,-623 454,-623 454,-623 20,-623 20,-623 14,-623 8,-617 8,-611 8,-611 8,-560 8,-560 8,-554 14,-548 20,-548"/>
<text text-anchor="middle" x="237" y="-607.8" font-family="Times,serif" font-size="14.00">4º Semestre</text>
</a>
</g>
</g>
<g id="clust5" class="cluster">
<title>cluster_5º Semestre</title>
<g id="a_clust5"><a xlink:title="5º Semestre">
<path fill="transparent" stroke="black" d="M486,-548C486,-548 1104,-548 1104,-548 1110,-548 1116,-554 1116,-560 1116,-560 1116,-611 1116,-611 1116,-617 1110,-623 1104,-623 1104,-623 486,-623 486,-623 480,-623 474,-617 474,-611 474,-611 474,-560 474,-560 474,-554 480,-548 486,-548"/>
<text text-anchor="middle" x="795" y="-607.8" font-family="Times,serif" font-size="14.00">5º Semestre</text>
</a>
</g>
</g>
<g id="clust6" class="cluster">
<title>cluster_6º Semestre</title>
<g id="a_clust6"><a xlink:title="6º Semestre">
<path fill="transparent" stroke="black" d="M486,-368C486,-368 920,-368 920,-368 926,-368 932,-374 932,-380 932,-380 932,-431 932,-431 932,-437 926,-443 920,-443 920,-443 486,-443 486,-443 480,-443 474,-437 474,-431 474,-431 474,-380 474,-380 474,-374 480,-368 486,-368"/>
<text text-anchor="middle" x="703" y="-427.8" font-family="Times,serif" font-size="14.00">6º Semestre</text>
</a>
</g>
</g>
<g id="clust7" class="cluster">
<title>cluster_7º Semestre</title>
<g id="a_clust7"><a xlink:title="7º Semestre">
<path fill="transparent" stroke="black" d="M146,-188C146,-188 488,-188 488,-188 494,-188 500,-194 500,-200 500,-200 500,-251 500,-251 500,-257 494,-263 488,-263 488,-263 146,-263 146,-263 140,-263 134,-257 134,-251 134,-251 134,-200 134,-200 134,-194 140,-188 146,-188"/>
<text text-anchor="middle" x="317" y="-247.8" font-family="Times,serif" font-size="14.00">7º Semestre</text>
</a>
</g>
</g>
<g id="clust8" class="cluster">
<title>cluster_8º Semestre</title>
<g id="a_clust8"><a xlink:title="8º Semestre">
<path fill="transparent" stroke="black" d="M330,-8C330,-8 488,-8 488,-8 494,-8 500,-14 500,-20 500,-20 500,-71 500,-71 500,-77 494,-83 488,-83 488,-83 330,-83 330,-83 324,-83 318,-77 318,-71 318,-71 318,-20 318,-20 318,-14 324,-8 330,-8"/>
<text text-anchor="middle" x="409" y="-67.8" font-family="Times,serif" font-size="14.00">8º Semestre</text>
</a>
</g>
</g>
<g id="clust9" class="cluster">
<title>cluster_Nenhum</title>
<g id="a_clust9"><a xlink:title="Nenhum">
<path fill="transparent" stroke="black" d="M958,-1088C958,-1088 1034,-1088 1034,-1088 1040,-1088 1046,-1094 1046,-1100 1046,-1100 1046,-1151 1046,-1151 1046,-1157 1040,-1163 1034,-1163 1034,-1163 958,-1163 958,-1163 952,-1163 946,-1157 946,-1151 946,-1151 946,-1100 946,-1100 946,-1094 952,-1088 958,-1088"/>
<text text-anchor="middle" x="996" y="-1147.8" font-family="Times,serif" font-size="14.00">Nenhum</text>
</a>
</g>
</g>
<!-- CC0281 -->
<g id="node1" class="node">
<title>CC0281</title>
<g id="a_node1"><a xlink:href="../../curso/componentes/cc0281.html" xlink:title="Seminários de Tutoria I">
<path fill="none" stroke="black" d="M761,-1132C761,-1132 711,-1132 711,-1132 705,-1132 699,-1126 699,-1120 699,-1120 699,-1108 699,-1108 699,-1102 705,-1096 711,-1096 711,-1096 761,-1096 761,-1096 767,-1096 773,-1102 773,-1108 773,-1108 773,-1120 773,-1120 773,-1126 767,-1132 761,-1132"/>
<text text-anchor="middle" x="736" y="-1110.3" font-family="Times,serif" font-size="14.00">CC0281</text>
</a>
</g>
</g>
<!-- CC0284 -->
<g id="node6" class="node">
<title>CC0284</title>
<g id="a_node6"><a xlink:href="../../curso/componentes/cc0284.html" xlink:title="Seminários de Tutoria II">
<path fill="none" stroke="black" d="M766,-952C766,-952 716,-952 716,-952 710,-952 704,-946 704,-940 704,-940 704,-928 704,-928 704,-922 710,-916 716,-916 716,-916 766,-916 766,-916 772,-916 778,-922 778,-928 778,-928 778,-940 778,-940 778,-946 772,-952 766,-952"/>
<text text-anchor="middle" x="741" y="-930.3" font-family="Times,serif" font-size="14.00">CC0284</text>
</a>
</g>
</g>
<!-- CC0281&#45;&gt;CC0284 -->
<g id="edge14" class="edge">
<title>CC0281&#45;&gt;CC0284</title>
<path fill="none" stroke="black" d="M736.48,-1095.93C737.35,-1064.97 739.19,-999.3 740.24,-962.13"/>
<polygon fill="black" stroke="black" points="743.74,-962.11 740.52,-952.02 736.74,-961.91 743.74,-962.11"/>
</g>
<!-- CB0534 -->
<g id="node2" class="node">
<title>CB0534</title>
<g id="a_node2"><a xlink:href="../../curso/componentes/cb0534.html" xlink:title="Cálculo Diferencial e Integral I">
<path fill="none" stroke="black" d="M853,-1132C853,-1132 803,-1132 803,-1132 797,-1132 791,-1126 791,-1120 791,-1120 791,-1108 791,-1108 791,-1102 797,-1096 803,-1096 803,-1096 853,-1096 853,-1096 859,-1096 865,-1102 865,-1108 865,-1108 865,-1120 865,-1120 865,-1126 859,-1132 853,-1132"/>
<text text-anchor="middle" x="828" y="-1110.3" font-family="Times,serif" font-size="14.00">CB0534</text>
</a>
</g>
</g>
<!-- CB0535 -->
<g id="node7" class="node">
<title>CB0535</title>
<g id="a_node7"><a xlink:href="../../curso/componentes/cb0535.html" xlink:title="Cálculo Diferencial e Integral II">
<path fill="none" stroke="black" d="M858,-952C858,-952 808,-952 808,-952 802,-952 796,-946 796,-940 796,-940 796,-928 796,-928 796,-922 802,-916 808,-916 808,-916 858,-916 858,-916 864,-916 870,-922 870,-928 870,-928 870,-940 870,-940 870,-946 864,-952 858,-952"/>
<text text-anchor="middle" x="833" y="-930.3" font-family="Times,serif" font-size="14.00">CB0535</text>
</a>
</g>
</g>
<!-- CB0534&#45;&gt;CB0535 -->
<g id="edge21" class="edge">
<title>CB0534&#45;&gt;CB0535</title>
<path fill="none" stroke="black" d="M828.48,-1095.93C829.35,-1064.97 831.19,-999.3 832.24,-962.13"/>
<polygon fill="black" stroke="black" points="835.74,-962.11 832.52,-952.02 828.74,-961.91 835.74,-962.11"/>
</g>
<!-- CK0087 -->
<g id="node3" class="node">
<title>CK0087</title>
<g id="a_node3"><a xlink:href="../../curso/componentes/ck0087.html" xlink:title="Fundamentos de Programação">
<path fill="none" stroke="black" d="M485,-1132C485,-1132 435,-1132 435,-1132 429,-1132 423,-1126 423,-1120 423,-1120 423,-1108 423,-1108 423,-1102 429,-1096 435,-1096 435,-1096 485,-1096 485,-1096 491,-1096 497,-1102 497,-1108 497,-1108 497,-1120 497,-1120 497,-1126 491,-1132 485,-1132"/>
<text text-anchor="middle" x="460" y="-1110.3" font-family="Times,serif" font-size="14.00">CK0087</text>
</a>
</g>
</g>
<!-- CK0109 -->
<g id="node9" class="node">
<title>CK0109</title>
<g id="a_node9"><a xlink:href="../../curso/componentes/ck0109.html" xlink:title="Estrutura de Dados">
<path fill="none" stroke="black" d="M674,-952C674,-952 624,-952 624,-952 618,-952 612,-946 612,-940 612,-940 612,-928 612,-928 612,-922 618,-916 624,-916 624,-916 674,-916 674,-916 680,-916 686,-922 686,-928 686,-928 686,-940 686,-940 686,-946 680,-952 674,-952"/>
<text text-anchor="middle" x="649" y="-930.3" font-family="Times,serif" font-size="14.00">CK0109</text>
</a>
</g>
</g>
<!-- CK0087&#45;&gt;CK0109 -->
<g id="edge25" class="edge">
<title>CK0087&#45;&gt;CK0109</title>
<path fill="none" stroke="black" d="M479.82,-1095.75C507.8,-1071.24 560.22,-1024.67 603,-983 610.69,-975.51 618.86,-967.13 626.15,-959.49"/>
<polygon fill="black" stroke="black" points="628.76,-961.83 633.1,-952.16 623.68,-957.01 628.76,-961.83"/>
</g>
<!-- CK0112 -->
<g id="node13" class="node">
<title>CK0112</title>
<g id="a_node13"><a xlink:href="../../curso/componentes/ck0112.html" xlink:title="Técnicas de Programação I">
<path fill="none" stroke="black" d="M479,-772C479,-772 429,-772 429,-772 423,-772 417,-766 417,-760 417,-760 417,-748 417,-748 417,-742 423,-736 429,-736 429,-736 479,-736 479,-736 485,-736 491,-742 491,-748 491,-748 491,-760 491,-760 491,-766 485,-772 479,-772"/>
<text text-anchor="middle" x="454" y="-750.3" font-family="Times,serif" font-size="14.00">CK0112</text>
</a>
</g>
</g>
<!-- CK0087&#45;&gt;CK0112 -->
<g id="edge7" class="edge">
<title>CK0087&#45;&gt;CK0112</title>
<path fill="none" stroke="black" d="M459.71,-1095.73C458.75,-1038.19 455.64,-852.66 454.46,-782.35"/>
<polygon fill="black" stroke="black" points="457.95,-782.03 454.29,-772.09 450.95,-782.15 457.95,-782.03"/>
</g>
<!-- CK0047 -->
<g id="node17" class="node">
<title>CK0047</title>
<g id="a_node17"><a xlink:href="../../curso/componentes/ck0047.html" xlink:title="Métodos Numéricos I">
<path fill="none" stroke="black" d="M354,-592C354,-592 304,-592 304,-592 298,-592 292,-586 292,-580 292,-580 292,-568 292,-568 292,-562 298,-556 304,-556 304,-556 354,-556 354,-556 360,-556 366,-562 366,-568 366,-568 366,-580 366,-580 366,-586 360,-592 354,-592"/>
<text text-anchor="middle" x="329" y="-570.3" font-family="Times,serif" font-size="14.00">CK0047</text>
</a>
</g>
</g>
<!-- CK0087&#45;&gt;CK0047 -->
<g id="edge4" class="edge">
<title>CK0087&#45;&gt;CK0047</title>
<path fill="none" stroke="black" d="M455.79,-1095.71C436.77,-1017.61 358.82,-697.46 335.57,-601.99"/>
<polygon fill="black" stroke="black" points="338.96,-601.11 333.19,-592.23 332.16,-602.77 338.96,-601.11"/>
</g>
<!-- CB0697 -->
<g id="node4" class="node">
<title>CB0697</title>
<g id="a_node4"><a xlink:href="../../curso/componentes/cb0697.html" xlink:title="Elementos de Matemática">
<path fill="none" stroke="black" d="M577,-1132C577,-1132 527,-1132 527,-1132 521,-1132 515,-1126 515,-1120 515,-1120 515,-1108 515,-1108 515,-1102 521,-1096 527,-1096 527,-1096 577,-1096 577,-1096 583,-1096 589,-1102 589,-1108 589,-1108 589,-1120 589,-1120 589,-1126 583,-1132 577,-1132"/>
<text text-anchor="middle" x="552" y="-1110.3" font-family="Times,serif" font-size="14.00">CB0697</text>
</a>
</g>
</g>
<!-- CC0314 -->
<g id="node5" class="node">
<title>CC0314</title>
<g id="a_node5"><a xlink:href="../../curso/componentes/cc0314.html" xlink:title="Matemática Finita">
<path fill="none" stroke="black" d="M669,-1132C669,-1132 619,-1132 619,-1132 613,-1132 607,-1126 607,-1120 607,-1120 607,-1108 607,-1108 607,-1102 613,-1096 619,-1096 619,-1096 669,-1096 669,-1096 675,-1096 681,-1102 681,-1108 681,-1108 681,-1120 681,-1120 681,-1126 675,-1132 669,-1132"/>
<text text-anchor="middle" x="644" y="-1110.3" font-family="Times,serif" font-size="14.00">CC0314</text>
</a>
</g>
</g>
<!-- CC0319 -->
<g id="node14" class="node">
<title>CC0319</title>
<g id="a_node14"><a xlink:href="../../curso/componentes/cc0319.html" xlink:title="Cálculo das Probabilidades">
<path fill="none" stroke="black" d="M571,-772C571,-772 521,-772 521,-772 515,-772 509,-766 509,-760 509,-760 509,-748 509,-748 509,-742 515,-736 521,-736 521,-736 571,-736 571,-736 577,-736 583,-742 583,-748 583,-748 583,-760 583,-760 583,-766 577,-772 571,-772"/>
<text text-anchor="middle" x="546" y="-750.3" font-family="Times,serif" font-size="14.00">CC0319</text>
</a>
</g>
</g>
<!-- CC0314&#45;&gt;CC0319 -->
<g id="edge8" class="edge">
<title>CC0314&#45;&gt;CC0319</title>
<path fill="none" stroke="black" d="M615.37,-1095.94C582.33,-1074.39 529.76,-1033.91 508,-983 478.6,-914.22 512.16,-824.72 532.58,-781.14"/>
<polygon fill="black" stroke="black" points="535.76,-782.6 536.96,-772.07 529.46,-779.56 535.76,-782.6"/>
</g>
<!-- CB0536 -->
<g id="node15" class="node">
<title>CB0536</title>
<g id="a_node15"><a xlink:href="../../curso/componentes/cb0536.html" xlink:title="Cálculo Diferencial e Integral III">
<path fill="none" stroke="black" d="M663,-772C663,-772 613,-772 613,-772 607,-772 601,-766 601,-760 601,-760 601,-748 601,-748 601,-742 607,-736 613,-736 613,-736 663,-736 663,-736 669,-736 675,-742 675,-748 675,-748 675,-760 675,-760 675,-766 669,-772 663,-772"/>
<text text-anchor="middle" x="638" y="-750.3" font-family="Times,serif" font-size="14.00">CB0536</text>
</a>
</g>
</g>
<!-- CB0535&#45;&gt;CB0536 -->
<g id="edge18" class="edge">
<title>CB0535&#45;&gt;CB0536</title>
<path fill="none" stroke="black" d="M812.24,-915.9C782.97,-891.56 728.21,-845.19 684,-803 676.23,-795.59 668.04,-787.23 660.75,-779.59"/>
<polygon fill="black" stroke="black" points="663.23,-777.11 653.82,-772.24 658.14,-781.92 663.23,-777.11"/>
</g>
<!-- CC0323 -->
<g id="node27" class="node">
<title>CC0323</title>
<g id="a_node27"><a xlink:href="../../curso/componentes/cc0323.html" xlink:title="Programação Não&#45;Linear">
<path fill="none" stroke="black" d="M912,-592C912,-592 862,-592 862,-592 856,-592 850,-586 850,-580 850,-580 850,-568 850,-568 850,-562 856,-556 862,-556 862,-556 912,-556 912,-556 918,-556 924,-562 924,-568 924,-568 924,-580 924,-580 924,-586 918,-592 912,-592"/>
<text text-anchor="middle" x="887" y="-570.3" font-family="Times,serif" font-size="14.00">CC0323</text>
</a>
</g>
</g>
<!-- CB0535&#45;&gt;CC0323 -->
<g id="edge22" class="edge">
<title>CB0535&#45;&gt;CC0323</title>
<path fill="none" stroke="black" d="M839.38,-915.62C848.13,-890.96 863.62,-844.2 871,-803 883.84,-731.32 886.49,-645.23 886.97,-602.24"/>
<polygon fill="black" stroke="black" points="890.47,-602.06 887.05,-592.03 883.47,-602 890.47,-602.06"/>
</g>
<!-- CB0589 -->
<g id="node8" class="node">
<title>CB0589</title>
<g id="a_node8"><a xlink:href="../../curso/componentes/cb0589.html" xlink:title="Álgebra Linear">
<path fill="none" stroke="black" d="M950,-952C950,-952 900,-952 900,-952 894,-952 888,-946 888,-940 888,-940 888,-928 888,-928 888,-922 894,-916 900,-916 900,-916 950,-916 950,-916 956,-916 962,-922 962,-928 962,-928 962,-940 962,-940 962,-946 956,-952 950,-952"/>
<text text-anchor="middle" x="925" y="-930.3" font-family="Times,serif" font-size="14.00">CB0589</text>
</a>
</g>
</g>
<!-- CC0263 -->
<g id="node12" class="node">
<title>CC0263</title>
<g id="a_node12"><a xlink:href="../../curso/componentes/cc0263.html" xlink:title="Programação Linear">
<path fill="none" stroke="black" d="M755,-772C755,-772 705,-772 705,-772 699,-772 693,-766 693,-760 693,-760 693,-748 693,-748 693,-742 699,-736 705,-736 705,-736 755,-736 755,-736 761,-736 767,-742 767,-748 767,-748 767,-760 767,-760 767,-766 761,-772 755,-772"/>
<text text-anchor="middle" x="730" y="-750.3" font-family="Times,serif" font-size="14.00">CC0263</text>
</a>
</g>
</g>
<!-- CB0589&#45;&gt;CC0263 -->
<g id="edge6" class="edge">
<title>CB0589&#45;&gt;CC0263</title>
<path fill="none" stroke="black" d="M904.24,-915.9C874.97,-891.56 820.21,-845.19 776,-803 768.23,-795.59 760.04,-787.23 752.75,-779.59"/>
<polygon fill="black" stroke="black" points="755.23,-777.11 745.82,-772.24 750.14,-781.92 755.23,-777.11"/>
</g>
<!-- CB0591 -->
<g id="node25" class="node">
<title>CB0591</title>
<g id="a_node25"><a xlink:href="../../curso/componentes/cb0591.html" xlink:title="Séries de Funções e Equações Diferenciais Ordinárias">
<path fill="none" stroke="black" d="M1004,-592C1004,-592 954,-592 954,-592 948,-592 942,-586 942,-580 942,-580 942,-568 942,-568 942,-562 948,-556 954,-556 954,-556 1004,-556 1004,-556 1010,-556 1016,-562 1016,-568 1016,-568 1016,-580 1016,-580 1016,-586 1010,-592 1004,-592"/>
<text text-anchor="middle" x="979" y="-570.3" font-family="Times,serif" font-size="14.00">CB0591</text>
</a>
</g>
</g>
<!-- CB0589&#45;&gt;CB0591 -->
<g id="edge15" class="edge">
<title>CB0589&#45;&gt;CB0591</title>
<path fill="none" stroke="black" d="M927.6,-915.73C936.28,-858.19 964.27,-672.66 974.87,-602.35"/>
<polygon fill="black" stroke="black" points="978.39,-602.5 976.42,-592.09 971.47,-601.46 978.39,-602.5"/>
</g>
<!-- CB0589&#45;&gt;CC0323 -->
<g id="edge23" class="edge">
<title>CB0589&#45;&gt;CC0323</title>
<path fill="none" stroke="black" d="M923.17,-915.73C917.06,-858.19 897.37,-672.66 889.9,-602.35"/>
<polygon fill="black" stroke="black" points="893.35,-601.67 888.81,-592.09 886.39,-602.41 893.35,-601.67"/>
</g>
<!-- CC0325 -->
<g id="node28" class="node">
<title>CC0325</title>
<g id="a_node28"><a xlink:href="../../curso/componentes/cc0325.html" xlink:title="Álgebra Linear Computacional">
<path fill="none" stroke="black" d="M820,-412C820,-412 770,-412 770,-412 764,-412 758,-406 758,-400 758,-400 758,-388 758,-388 758,-382 764,-376 770,-376 770,-376 820,-376 820,-376 826,-376 832,-382 832,-388 832,-388 832,-400 832,-400 832,-406 826,-412 820,-412"/>
<text text-anchor="middle" x="795" y="-390.3" font-family="Times,serif" font-size="14.00">CC0325</text>
</a>
</g>
</g>
<!-- CB0589&#45;&gt;CC0325 -->
<g id="edge2" class="edge">
<title>CB0589&#45;&gt;CC0325</title>
<path fill="none" stroke="black" d="M946.39,-915.96C1013.68,-860.29 1211.25,-679.84 1120,-548 1044.6,-439.06 951.58,-515.97 841,-443 831.51,-436.74 822.51,-428.19 815.03,-420.04"/>
<polygon fill="black" stroke="black" points="817.59,-417.64 808.36,-412.43 812.32,-422.26 817.59,-417.64"/>
</g>
<!-- CK0019 -->
<g id="node20" class="node">
<title>CK0019</title>
<g id="a_node20"><a xlink:href="../../curso/componentes/ck0019.html" xlink:title="Construção e Análise de Algoritmos">
<path fill="none" stroke="black" d="M78,-592C78,-592 28,-592 28,-592 22,-592 16,-586 16,-580 16,-580 16,-568 16,-568 16,-562 22,-556 28,-556 28,-556 78,-556 78,-556 84,-556 90,-562 90,-568 90,-568 90,-580 90,-580 90,-586 84,-592 78,-592"/>
<text text-anchor="middle" x="53" y="-570.3" font-family="Times,serif" font-size="14.00">CK0019</text>
</a>
</g>
</g>
<!-- CK0109&#45;&gt;CK0019 -->
<g id="edge33" class="edge">
<title>CK0109&#45;&gt;CK0019</title>
<path fill="none" stroke="black" d="M617.35,-915.74C612.55,-913.14 607.64,-910.49 603,-908 515.24,-860.88 491.95,-851.6 405,-803 267.27,-726.02 222.75,-720.88 99,-623 90.31,-616.13 81.67,-607.66 74.26,-599.76"/>
<polygon fill="black" stroke="black" points="76.63,-597.16 67.31,-592.13 71.46,-601.88 76.63,-597.16"/>
</g>
<!-- CC0280 -->
<g id="node10" class="node">
<title>CC0280</title>
<g id="a_node10"><a xlink:href="../../curso/componentes/cc0280.html" xlink:title="Análise Exploratória de Dados">
<path fill="none" stroke="black" d="M582,-952C582,-952 532,-952 532,-952 526,-952 520,-946 520,-940 520,-940 520,-928 520,-928 520,-922 526,-916 532,-916 532,-916 582,-916 582,-916 588,-916 594,-922 594,-928 594,-928 594,-940 594,-940 594,-946 588,-952 582,-952"/>
<text text-anchor="middle" x="557" y="-930.3" font-family="Times,serif" font-size="14.00">CC0280</text>
</a>
</g>
</g>
<!-- HL0747 -->
<g id="node11" class="node">
<title>HL0747</title>
<g id="a_node11"><a xlink:href="../../curso/componentes/hl0747.html" xlink:title="Inglês Técnico">
<path fill="none" stroke="black" d="M847,-772C847,-772 797,-772 797,-772 791,-772 785,-766 785,-760 785,-760 785,-748 785,-748 785,-742 791,-736 797,-736 797,-736 847,-736 847,-736 853,-736 859,-742 859,-748 859,-748 859,-760 859,-760 859,-766 853,-772 847,-772"/>
<text text-anchor="middle" x="822" y="-750.3" font-family="Times,serif" font-size="14.00">HL0747</text>
</a>
</g>
</g>
<!-- CC0399 -->
<g id="node16" class="node">
<title>CC0399</title>
<g id="a_node16"><a xlink:href="../../curso/componentes/cc0399.html" xlink:title="Programação Inteira">
<path fill="none" stroke="black" d="M170,-592C170,-592 120,-592 120,-592 114,-592 108,-586 108,-580 108,-580 108,-568 108,-568 108,-562 114,-556 120,-556 120,-556 170,-556 170,-556 176,-556 182,-562 182,-568 182,-568 182,-580 182,-580 182,-586 176,-592 170,-592"/>
<text text-anchor="middle" x="145" y="-570.3" font-family="Times,serif" font-size="14.00">CC0399</text>
</a>
</g>
</g>
<!-- CC0263&#45;&gt;CC0399 -->
<g id="edge1" class="edge">
<title>CC0263&#45;&gt;CC0399</title>
<path fill="none" stroke="black" d="M701.39,-735.82C695.76,-732.91 689.8,-730.14 684,-728 473.85,-650.38 386.71,-732.02 191,-623 180.66,-617.24 171.21,-608.38 163.61,-599.84"/>
<polygon fill="black" stroke="black" points="166.29,-597.59 157.18,-592.19 160.93,-602.09 166.29,-597.59"/>
</g>
<!-- CC0321 -->
<g id="node21" class="node">
<title>CC0321</title>
<g id="a_node21"><a xlink:href="../../curso/componentes/cc0321.html" xlink:title="Otimização Combinatória e Metaheurística">
<path fill="none" stroke="black" d="M820,-592C820,-592 770,-592 770,-592 764,-592 758,-586 758,-580 758,-580 758,-568 758,-568 758,-562 764,-556 770,-556 770,-556 820,-556 820,-556 826,-556 832,-562 832,-568 832,-568 832,-580 832,-580 832,-586 826,-592 820,-592"/>
<text text-anchor="middle" x="795" y="-570.3" font-family="Times,serif" font-size="14.00">CC0321</text>
</a>
</g>
</g>
<!-- CC0263&#45;&gt;CC0321 -->
<g id="edge5" class="edge">
<title>CC0263&#45;&gt;CC0321</title>
<path fill="none" stroke="black" d="M736.23,-735.93C747.59,-704.83 771.73,-638.73 785.27,-601.65"/>
<polygon fill="black" stroke="black" points="788.64,-602.61 788.79,-592.02 782.07,-600.21 788.64,-602.61"/>
</g>
<!-- CC0297 -->
<g id="node19" class="node">
<title>CC0297</title>
<g id="a_node19"><a xlink:href="../../curso/componentes/cc0297.html" xlink:title="Introdução aos Processos Estocásticos">
<path fill="none" stroke="black" d="M446,-592C446,-592 396,-592 396,-592 390,-592 384,-586 384,-580 384,-580 384,-568 384,-568 384,-562 390,-556 396,-556 396,-556 446,-556 446,-556 452,-556 458,-562 458,-568 458,-568 458,-580 458,-580 458,-586 452,-592 446,-592"/>
<text text-anchor="middle" x="421" y="-570.3" font-family="Times,serif" font-size="14.00">CC0297</text>
</a>
</g>
</g>
<!-- CC0319&#45;&gt;CC0297 -->
<g id="edge17" class="edge">
<title>CC0319&#45;&gt;CC0297</title>
<path fill="none" stroke="black" d="M534.01,-735.93C511.9,-704.43 464.56,-637.03 438.72,-600.24"/>
<polygon fill="black" stroke="black" points="441.56,-598.19 432.95,-592.02 435.83,-602.21 441.56,-598.19"/>
</g>
<!-- CC0288 -->
<g id="node23" class="node">
<title>CC0288</title>
<g id="a_node23"><a xlink:href="../../curso/componentes/cc0288.html" xlink:title="Inferência Estatística I">
<path fill="none" stroke="black" d="M728,-592C728,-592 678,-592 678,-592 672,-592 666,-586 666,-580 666,-580 666,-568 666,-568 666,-562 672,-556 678,-556 678,-556 728,-556 728,-556 734,-556 740,-562 740,-568 740,-568 740,-580 740,-580 740,-586 734,-592 728,-592"/>
<text text-anchor="middle" x="703" y="-570.3" font-family="Times,serif" font-size="14.00">CC0288</text>
</a>
</g>
</g>
<!-- CC0319&#45;&gt;CC0288 -->
<g id="edge12" class="edge">
<title>CC0319&#45;&gt;CC0288</title>
<path fill="none" stroke="black" d="M561.05,-735.93C588.95,-704.3 648.79,-636.46 681.15,-599.78"/>
<polygon fill="black" stroke="black" points="684,-601.83 687.99,-592.02 678.75,-597.2 684,-601.83"/>
</g>
<!-- CB0536&#45;&gt;CC0288 -->
<g id="edge11" class="edge">
<title>CB0536&#45;&gt;CC0288</title>
<path fill="none" stroke="black" d="M644.23,-735.93C655.59,-704.83 679.73,-638.73 693.27,-601.65"/>
<polygon fill="black" stroke="black" points="696.64,-602.61 696.79,-592.02 690.07,-600.21 696.64,-602.61"/>
</g>
<!-- CC0328 -->
<g id="node35" class="node">
<title>CC0328</title>
<g id="a_node35"><a xlink:href="../../curso/componentes/cc0328.html" xlink:title="Laboratório de Otimização">
<path fill="none" stroke="black" d="M204,-232C204,-232 154,-232 154,-232 148,-232 142,-226 142,-220 142,-220 142,-208 142,-208 142,-202 148,-196 154,-196 154,-196 204,-196 204,-196 210,-196 216,-202 216,-208 216,-208 216,-220 216,-220 216,-226 210,-232 204,-232"/>
<text text-anchor="middle" x="179" y="-210.3" font-family="Times,serif" font-size="14.00">CC0328</text>
</a>
</g>
</g>
<!-- CC0399&#45;&gt;CC0328 -->
<g id="edge20" class="edge">
<title>CC0399&#45;&gt;CC0328</title>
<path fill="none" stroke="black" d="M146.64,-555.73C152.1,-498.19 169.73,-312.66 176.4,-242.35"/>
<polygon fill="black" stroke="black" points="179.92,-242.38 177.38,-232.09 172.95,-241.72 179.92,-242.38"/>
</g>
<!-- CK0048 -->
<g id="node24" class="node">
<title>CK0048</title>
<g id="a_node24"><a xlink:href="../../curso/componentes/ck0048.html" xlink:title="Métodos Numéricos II">
<path fill="none" stroke="black" d="M1096,-592C1096,-592 1046,-592 1046,-592 1040,-592 1034,-586 1034,-580 1034,-580 1034,-568 1034,-568 1034,-562 1040,-556 1046,-556 1046,-556 1096,-556 1096,-556 1102,-556 1108,-562 1108,-568 1108,-568 1108,-580 1108,-580 1108,-586 1102,-592 1096,-592"/>
<text text-anchor="middle" x="1071" y="-570.3" font-family="Times,serif" font-size="14.00">CK0048</text>
</a>
</g>
</g>
<!-- CK0047&#45;&gt;CK0048 -->
<g id="edge13" class="edge">
<title>CK0047&#45;&gt;CK0048</title>
<path fill="none" stroke="black" d="M332.88,-592.25C339.06,-616.25 353.69,-657.45 384,-675.5 444.33,-711.43 955.67,-711.43 1016,-675.5 1042.52,-659.71 1057.04,-626.18 1064.39,-601.98"/>
<polygon fill="black" stroke="black" points="1067.79,-602.83 1067.12,-592.25 1061.05,-600.94 1067.79,-602.83"/>
</g>
<!-- CK0047&#45;&gt;CC0325 -->
<g id="edge3" class="edge">
<title>CK0047&#45;&gt;CC0325</title>
<path fill="none" stroke="black" d="M358.22,-555.86C363.69,-553.01 369.44,-550.26 375,-548 534.96,-483.04 600.93,-531.79 749,-443 758.9,-437.06 768.09,-428.44 775.61,-420.13"/>
<polygon fill="black" stroke="black" points="778.42,-422.23 782.27,-412.36 773.11,-417.67 778.42,-422.23"/>
</g>
<!-- CC0329 -->
<g id="node36" class="node">
<title>CC0329</title>
<g id="a_node36"><a xlink:href="../../curso/componentes/cc0329.html" xlink:title="Laboratório de Matemática Industrial">
<path fill="none" stroke="black" d="M296,-232C296,-232 246,-232 246,-232 240,-232 234,-226 234,-220 234,-220 234,-208 234,-208 234,-202 240,-196 246,-196 246,-196 296,-196 296,-196 302,-196 308,-202 308,-208 308,-208 308,-220 308,-220 308,-226 302,-232 296,-232"/>
<text text-anchor="middle" x="271" y="-210.3" font-family="Times,serif" font-size="14.00">CC0329</text>
</a>
</g>
</g>
<!-- CK0047&#45;&gt;CC0329 -->
<g id="edge27" class="edge">
<title>CK0047&#45;&gt;CC0329</title>
<path fill="none" stroke="black" d="M326.2,-555.73C316.88,-498.19 286.82,-312.66 275.43,-242.35"/>
<polygon fill="black" stroke="black" points="278.82,-241.41 273.77,-232.09 271.91,-242.52 278.82,-241.41"/>
</g>
<!-- CC0400 -->
<g id="node18" class="node">
<title>CC0400</title>
<g id="a_node18"><a xlink:href="../../curso/componentes/cc0400.html" xlink:title="Tecnologia da Informação">
<path fill="none" stroke="black" d="M262,-592C262,-592 212,-592 212,-592 206,-592 200,-586 200,-580 200,-580 200,-568 200,-568 200,-562 206,-556 212,-556 212,-556 262,-556 262,-556 268,-556 274,-562 274,-568 274,-568 274,-580 274,-580 274,-586 268,-592 262,-592"/>
<text text-anchor="middle" x="237" y="-570.3" font-family="Times,serif" font-size="14.00">CC0400</text>
</a>
</g>
</g>
<!-- CK0019&#45;&gt;CC0328 -->
<g id="edge19" class="edge">
<title>CK0019&#45;&gt;CC0328</title>
<path fill="none" stroke="black" d="M53.94,-556C56.34,-520.19 64.4,-434.8 89,-368 106.66,-320.04 139.21,-270.01 159.95,-240.72"/>
<polygon fill="black" stroke="black" points="162.99,-242.48 165.97,-232.32 157.3,-238.4 162.99,-242.48"/>
</g>
<!-- CK0019&#45;&gt;CC0329 -->
<g id="edge26" class="edge">
<title>CK0019&#45;&gt;CC0329</title>
<path fill="none" stroke="black" d="M63.51,-555.73C98.84,-497.72 213.4,-309.59 255.39,-240.64"/>
<polygon fill="black" stroke="black" points="258.38,-242.46 260.59,-232.09 252.4,-238.81 258.38,-242.46"/>
</g>
<!-- PB0148 -->
<g id="node22" class="node">
<title>PB0148</title>
<g id="a_node22"><a xlink:href="../../curso/componentes/pb0148.html" xlink:title="Metodologia Científica">
<path fill="none" stroke="black" d="M543.5,-592C543.5,-592 494.5,-592 494.5,-592 488.5,-592 482.5,-586 482.5,-580 482.5,-580 482.5,-568 482.5,-568 482.5,-562 488.5,-556 494.5,-556 494.5,-556 543.5,-556 543.5,-556 549.5,-556 555.5,-562 555.5,-568 555.5,-568 555.5,-580 555.5,-580 555.5,-586 549.5,-592 543.5,-592"/>
<text text-anchor="middle" x="519" y="-570.3" font-family="Times,serif" font-size="14.00">PB0148</text>
</a>
</g>
</g>
<!-- CC0324 -->
<g id="node29" class="node">
<title>CC0324</title>
<g id="a_node29"><a xlink:href="../../curso/componentes/cc0324.html" xlink:title="Seminários Preparatórios para o Estágio Supervisionado e Monografia">
<path fill="none" stroke="black" d="M544,-412C544,-412 494,-412 494,-412 488,-412 482,-406 482,-400 482,-400 482,-388 482,-388 482,-382 488,-376 494,-376 494,-376 544,-376 544,-376 550,-376 556,-382 556,-388 556,-388 556,-400 556,-400 556,-406 550,-412 544,-412"/>
<text text-anchor="middle" x="519" y="-390.3" font-family="Times,serif" font-size="14.00">CC0324</text>
</a>
</g>
</g>
<!-- PB0148&#45;&gt;CC0324 -->
<g id="edge10" class="edge">
<title>PB0148&#45;&gt;CC0324</title>
<path fill="none" stroke="black" d="M519,-555.93C519,-524.97 519,-459.3 519,-422.13"/>
<polygon fill="black" stroke="black" points="522.5,-422.02 519,-412.02 515.5,-422.02 522.5,-422.02"/>
</g>
<!-- CC0327 -->
<g id="node30" class="node">
<title>CC0327</title>
<g id="a_node30"><a xlink:href="../../curso/componentes/cc0327.html" xlink:title="Simulação Estocástica">
<path fill="none" stroke="black" d="M636,-412C636,-412 586,-412 586,-412 580,-412 574,-406 574,-400 574,-400 574,-388 574,-388 574,-382 580,-376 586,-376 586,-376 636,-376 636,-376 642,-376 648,-382 648,-388 648,-388 648,-400 648,-400 648,-406 642,-412 636,-412"/>
<text text-anchor="middle" x="611" y="-390.3" font-family="Times,serif" font-size="14.00">CC0327</text>
</a>
</g>
</g>
<!-- CC0288&#45;&gt;CC0327 -->
<g id="edge28" class="edge">
<title>CC0288&#45;&gt;CC0327</title>
<path fill="none" stroke="black" d="M694.18,-555.93C678.04,-524.7 643.65,-458.17 624.53,-421.18"/>
<polygon fill="black" stroke="black" points="627.5,-419.29 619.79,-412.02 621.28,-422.51 627.5,-419.29"/>
</g>
<!-- CC0228 -->
<g id="node32" class="node">
<title>CC0228</title>
<g id="a_node32"><a xlink:href="../../curso/componentes/cc0228.html" xlink:title="Controle Estatístico da Qualidade">
<path fill="none" stroke="black" d="M728,-412C728,-412 678,-412 678,-412 672,-412 666,-406 666,-400 666,-400 666,-388 666,-388 666,-382 672,-376 678,-376 678,-376 728,-376 728,-376 734,-376 740,-382 740,-388 740,-388 740,-400 740,-400 740,-406 734,-412 728,-412"/>
<text text-anchor="middle" x="703" y="-390.3" font-family="Times,serif" font-size="14.00">CC0228</text>
</a>
</g>
</g>
<!-- CC0288&#45;&gt;CC0228 -->
<g id="edge31" class="edge">
<title>CC0288&#45;&gt;CC0228</title>
<path fill="none" stroke="black" d="M703,-555.93C703,-524.97 703,-459.3 703,-422.13"/>
<polygon fill="black" stroke="black" points="706.5,-422.02 703,-412.02 699.5,-422.02 706.5,-422.02"/>
</g>
<!-- CC0326 -->
<g id="node31" class="node">
<title>CC0326</title>
<g id="a_node31"><a xlink:href="../../curso/componentes/cc0326.html" xlink:title="Métodos Numéricos para Equações Diferenciais">
<path fill="none" stroke="black" d="M912,-412C912,-412 862,-412 862,-412 856,-412 850,-406 850,-400 850,-400 850,-388 850,-388 850,-382 856,-376 862,-376 862,-376 912,-376 912,-376 918,-376 924,-382 924,-388 924,-388 924,-400 924,-400 924,-406 918,-412 912,-412"/>
<text text-anchor="middle" x="887" y="-390.3" font-family="Times,serif" font-size="14.00">CC0326</text>
</a>
</g>
</g>
<!-- CK0048&#45;&gt;CC0326 -->
<g id="edge29" class="edge">
<title>CK0048&#45;&gt;CC0326</title>
<path fill="none" stroke="black" d="M1053.36,-555.93C1020.52,-524.17 949.95,-455.89 912.14,-419.32"/>
<polygon fill="black" stroke="black" points="914.21,-416.45 904.59,-412.02 909.34,-421.48 914.21,-416.45"/>
</g>
<!-- CB0591&#45;&gt;CC0326 -->
<g id="edge30" class="edge">
<title>CB0591&#45;&gt;CC0326</title>
<path fill="none" stroke="black" d="M970.18,-555.93C954.04,-524.7 919.65,-458.17 900.53,-421.18"/>
<polygon fill="black" stroke="black" points="903.5,-419.29 895.79,-412.02 897.28,-422.51 903.5,-419.29"/>
</g>
<!-- CC0322 -->
<g id="node26" class="node">
<title>CC0322</title>
<g id="a_node26"><a xlink:href="../../curso/componentes/cc0322.html" xlink:title="Otimização em Redes">
<path fill="none" stroke="black" d="M636,-592C636,-592 586,-592 586,-592 580,-592 574,-586 574,-580 574,-580 574,-568 574,-568 574,-562 580,-556 586,-556 586,-556 636,-556 636,-556 642,-556 648,-562 648,-568 648,-568 648,-580 648,-580 648,-586 642,-592 636,-592"/>
<text text-anchor="middle" x="611" y="-570.3" font-family="Times,serif" font-size="14.00">CC0322</text>
</a>
</g>
</g>
<!-- CC0317 -->
<g id="node33" class="node">
<title>CC0317</title>
<g id="a_node33"><a xlink:href="../../curso/componentes/cc0317.html" xlink:title="Estágio Supervisionado I">
<path fill="none" stroke="black" d="M480,-232C480,-232 430,-232 430,-232 424,-232 418,-226 418,-220 418,-220 418,-208 418,-208 418,-202 424,-196 430,-196 430,-196 480,-196 480,-196 486,-196 492,-202 492,-208 492,-208 492,-220 492,-220 492,-226 486,-232 480,-232"/>
<text text-anchor="middle" x="455" y="-210.3" font-family="Times,serif" font-size="14.00">CC0317</text>
</a>
</g>
</g>
<!-- CC0324&#45;&gt;CC0317 -->
<g id="edge9" class="edge">
<title>CC0324&#45;&gt;CC0317</title>
<path fill="none" stroke="black" d="M512.86,-375.93C501.68,-344.83 477.92,-278.73 464.58,-241.65"/>
<polygon fill="black" stroke="black" points="467.8,-240.24 461.12,-232.02 461.21,-242.61 467.8,-240.24"/>
</g>
<!-- CC0315 -->
<g id="node34" class="node">
<title>CC0315</title>
<g id="a_node34"><a xlink:href="../../curso/componentes/cc0315.html" xlink:title="Monografia I">
<path fill="none" stroke="black" d="M388,-232C388,-232 338,-232 338,-232 332,-232 326,-226 326,-220 326,-220 326,-208 326,-208 326,-202 332,-196 338,-196 338,-196 388,-196 388,-196 394,-196 400,-202 400,-208 400,-208 400,-220 400,-220 400,-226 394,-232 388,-232"/>
<text text-anchor="middle" x="363" y="-210.3" font-family="Times,serif" font-size="14.00">CC0315</text>
</a>
</g>
</g>
<!-- CC0324&#45;&gt;CC0315 -->
<g id="edge16" class="edge">
<title>CC0324&#45;&gt;CC0315</title>
<path fill="none" stroke="black" d="M504.04,-375.93C476.32,-344.3 416.87,-276.46 384.71,-239.78"/>
<polygon fill="black" stroke="black" points="387.14,-237.23 377.91,-232.02 381.87,-241.84 387.14,-237.23"/>
</g>
<!-- CC0318 -->
<g id="node37" class="node">
<title>CC0318</title>
<g id="a_node37"><a xlink:href="../../curso/componentes/cc0318.html" xlink:title="Estágio Supervisionado II">
<path fill="none" stroke="black" d="M480,-52C480,-52 430,-52 430,-52 424,-52 418,-46 418,-40 418,-40 418,-28 418,-28 418,-22 424,-16 430,-16 430,-16 480,-16 480,-16 486,-16 492,-22 492,-28 492,-28 492,-40 492,-40 492,-46 486,-52 480,-52"/>
<text text-anchor="middle" x="455" y="-30.3" font-family="Times,serif" font-size="14.00">CC0318</text>
</a>
</g>
</g>
<!-- CC0317&#45;&gt;CC0318 -->
<g id="edge24" class="edge">
<title>CC0317&#45;&gt;CC0318</title>
<path fill="none" stroke="black" d="M455,-195.93C455,-164.97 455,-99.3 455,-62.13"/>
<polygon fill="black" stroke="black" points="458.5,-62.02 455,-52.02 451.5,-62.02 458.5,-62.02"/>
</g>
<!-- CC0316 -->
<g id="node38" class="node">
<title>CC0316</title>
<g id="a_node38"><a xlink:href="../../curso/componentes/cc0316.html" xlink:title="Monografia II">
<path fill="none" stroke="black" d="M388,-52C388,-52 338,-52 338,-52 332,-52 326,-46 326,-40 326,-40 326,-28 326,-28 326,-22 332,-16 338,-16 338,-16 388,-16 388,-16 394,-16 400,-22 400,-28 400,-28 400,-40 400,-40 400,-46 394,-52 388,-52"/>
<text text-anchor="middle" x="363" y="-30.3" font-family="Times,serif" font-size="14.00">CC0316</text>
</a>
</g>
</g>
<!-- CC0315&#45;&gt;CC0316 -->
<g id="edge32" class="edge">
<title>CC0315&#45;&gt;CC0316</title>
<path fill="none" stroke="black" d="M363,-195.93C363,-164.97 363,-99.3 363,-62.13"/>
<polygon fill="black" stroke="black" points="366.5,-62.02 363,-52.02 359.5,-62.02 366.5,-62.02"/>
</g>
<!-- MIN0001 -->
<g id="node39" class="node">
<title>MIN0001</title>
<g id="a_node39"><a xlink:href="../../curso/componentes/min0001.html" xlink:title="Atividades Complementares">
<path fill="none" stroke="black" d="M1026,-1132C1026,-1132 966,-1132 966,-1132 960,-1132 954,-1126 954,-1120 954,-1120 954,-1108 954,-1108 954,-1102 960,-1096 966,-1096 966,-1096 1026,-1096 1026,-1096 1032,-1096 1038,-1102 1038,-1108 1038,-1108 1038,-1120 1038,-1120 1038,-1126 1032,-1132 1026,-1132"/>
<text text-anchor="middle" x="996" y="-1110.3" font-family="Times,serif" font-size="14.00">MIN0001</text>
</a>
</g>
</g>
</g>
</svg>
