<?xml version="1.0" encoding="UTF-8" standalone="no"?>
<!DOCTYPE svg PUBLIC "-//W3C//DTD SVG 1.1//EN"
 "http://www.w3.org/Graphics/SVG/1.1/DTD/svg11.dtd">
<!-- Generated by graphviz version 2.43.0 (0)
 -->
<!-- Title: Formação_Básica Pages: 1 -->
<svg width="588pt" height="422pt"
 viewBox="0.00 0.00 588.00 422.00" xmlns="http://www.w3.org/2000/svg" xmlns:xlink="http://www.w3.org/1999/xlink">
<g id="graph0" class="graph" transform="scale(1 1) rotate(0) translate(4 418)">
<title>Formação_Básica</title>
<!-- fb -->
<g id="node1" class="node">
<title>fb</title>
<polygon fill="none" stroke="black" points="137,-225 0,-225 0,-189 137,-189 137,-225"/>
<text text-anchor="middle" x="68.5" y="-203.3" font-family="Times,serif" font-size="14.00">Formação Básica</text>
</g>
<!-- mi -->
<g id="node2" class="node">
<title>mi</title>
<polygon fill="none" stroke="black" points="353,-226 173,-226 173,-188 353,-188 353,-226"/>
<text text-anchor="middle" x="263" y="-210.8" font-family="Times,serif" font-size="14.00">Profissional em</text>
<text text-anchor="middle" x="263" y="-195.8" font-family="Times,serif" font-size="14.00"> Matemática Industrial</text>
</g>
<!-- fb&#45;&gt;mi -->
<g id="edge1" class="edge">
<title>fb&#45;&gt;mi</title>
<path fill="none" stroke="black" d="M137.1,-207C145.43,-207 154.08,-207 162.76,-207"/>
<polygon fill="black" stroke="black" points="162.94,-210.5 172.94,-207 162.94,-203.5 162.94,-210.5"/>
</g>
<!-- mat -->
<g id="node3" class="node">
<title>mat</title>
<polygon fill="none" stroke="black" points="535,-414 434,-414 434,-378 535,-378 535,-414"/>
<text text-anchor="middle" x="484.5" y="-392.3" font-family="Times,serif" font-size="14.00">Matemática</text>
</g>
<!-- mi&#45;&gt;mat -->
<g id="edge2" class="edge">
<title>mi&#45;&gt;mat</title>
<path fill="none" stroke="black" d="M273.5,-226.2C291.34,-260.23 333.14,-331.11 389,-369 402.27,-378 418.54,-384.03 433.81,-388.06"/>
</g>
<!-- est -->
<g id="node4" class="node">
<title>est</title>
<polygon fill="none" stroke="black" points="531,-360 438,-360 438,-324 531,-324 531,-360"/>
<text text-anchor="middle" x="484.5" y="-338.3" font-family="Times,serif" font-size="14.00">Estatística</text>
</g>
<!-- mi&#45;&gt;est -->
<g id="edge3" class="edge">
<title>mi&#45;&gt;est</title>
<path fill="none" stroke="black" d="M281.13,-226.26C303.61,-250.38 345.35,-291.41 389,-315 404.01,-323.11 421.71,-329.01 437.72,-333.18"/>
</g>
<!-- comp -->
<g id="node5" class="node">
<title>comp</title>
<polygon fill="none" stroke="black" points="537,-306 432,-306 432,-270 537,-270 537,-306"/>
<text text-anchor="middle" x="484.5" y="-284.3" font-family="Times,serif" font-size="14.00">Computação</text>
</g>
<!-- mi&#45;&gt;comp -->
<g id="edge4" class="edge">
<title>mi&#45;&gt;comp</title>
<path fill="none" stroke="black" d="M304.56,-226.11C328.77,-237.11 360.28,-250.74 389,-261 402.66,-265.88 417.66,-270.49 431.62,-274.48"/>
</g>
<!-- oti -->
<g id="node6" class="node">
<title>oti</title>
<polygon fill="none" stroke="black" points="532.5,-252 436.5,-252 436.5,-216 532.5,-216 532.5,-252"/>
<text text-anchor="middle" x="484.5" y="-230.3" font-family="Times,serif" font-size="14.00">Otimização</text>
</g>
<!-- mi&#45;&gt;oti -->
<g id="edge5" class="edge">
<title>mi&#45;&gt;oti</title>
<path fill="none" stroke="black" d="M353.28,-217.98C381.76,-221.49 412.16,-225.22 436.41,-228.21"/>
</g>
<!-- mono -->
<g id="node7" class="node">
<title>mono</title>
<polygon fill="none" stroke="black" points="580,-198 389,-198 389,-162 580,-162 580,-198"/>
<text text-anchor="middle" x="484.5" y="-176.3" font-family="Times,serif" font-size="14.00">Monografia e/ou Estágio</text>
</g>
<!-- mi&#45;&gt;mono -->
<g id="edge6" class="edge">
<title>mi&#45;&gt;mono</title>
<path fill="none" stroke="black" d="M353.28,-196.02C365.03,-194.57 377.1,-193.09 388.94,-191.63"/>
</g>
<!-- ori -->
<g id="node8" class="node">
<title>ori</title>
<polygon fill="none" stroke="black" points="572.5,-144 396.5,-144 396.5,-108 572.5,-108 572.5,-144"/>
<text text-anchor="middle" x="484.5" y="-122.3" font-family="Times,serif" font-size="14.00">Orientação Acadêmica</text>
</g>
<!-- mi&#45;&gt;ori -->
<g id="edge7" class="edge">
<title>mi&#45;&gt;ori</title>
<path fill="none" stroke="black" d="M304.56,-187.89C328.77,-176.89 360.28,-163.26 389,-153 397.76,-149.87 407.07,-146.85 416.3,-144.04"/>
</g>
<!-- ling -->
<g id="node9" class="node">
<title>ling</title>
<polygon fill="none" stroke="black" points="532,-90 437,-90 437,-54 532,-54 532,-90"/>
<text text-anchor="middle" x="484.5" y="-68.3" font-family="Times,serif" font-size="14.00">Linguistíca</text>
</g>
<!-- mi&#45;&gt;ling -->
<g id="edge8" class="edge">
<title>mi&#45;&gt;ling</title>
<path fill="none" stroke="black" d="M281.13,-187.74C303.61,-163.62 345.35,-122.59 389,-99 403.71,-91.05 421.01,-85.23 436.75,-81.07"/>
</g>
<!-- compl -->
<g id="node10" class="node">
<title>compl</title>
<polygon fill="none" stroke="black" points="545.5,-36 423.5,-36 423.5,0 545.5,0 545.5,-36"/>
<text text-anchor="middle" x="484.5" y="-14.3" font-family="Times,serif" font-size="14.00">Complementar</text>
</g>
<!-- mi&#45;&gt;compl -->
<g id="edge9" class="edge">
<title>mi&#45;&gt;compl</title>
<path fill="none" stroke="black" d="M273.5,-187.8C291.34,-153.77 333.14,-82.89 389,-45 399.31,-38.01 411.42,-32.81 423.47,-28.95"/>
</g>
</g>
</svg>
